<svg xmlns="http://www.w3.org/2000/svg" version="1.1" xmlns:xlink="http://www.w3.org/1999/xlink" xmlns:svgjs="http://svgjs.dev/svgjs" width="100%" height="100%" viewBox="0 0 1000 600"><rect width="1000" height="600" x="0" y="0" fill="#00214d"/><g><circle r="166.66666666666666" cx="317.2426401774088" cy="339.46483936183324" fill="#f6b042" transform="matrix(0.83014587140197,0,0,0.83014587140197,0,18.19465613444973)"/><path d="M364.885760076342 377.675944342188L317.25606549096 414.4648521036295Q295.73549362759303 414.4648521036295 282.3455118821815 400.7797004199423L282.3455118821815 400.7797004199423Q269.5995372748257 387.76538950506324 269.5995372748257 367.29132924103703L269.5995372748257 367.29132924103703L269.5995372748257 301.2537639595581L317.25606549096 264.46485619811665Q338.74980372357464 264.46485619811665 352.1397854689863 278.15000788180384L352.1397854689863 278.15000788180384Q364.885760076342 291.1643187966829 364.885760076342 311.6383790607091L364.885760076342 311.6383790607091L346.96089473378703 320.1178063784447L346.02171765745555 320.1178063784447L346.02171765745555 311.6383790607091Q346.02171765745555 298.97290534561023 339.23280907711654 291.1643187966829L339.23280907711654 291.1643187966829Q330.83388265163796 281.45054446434017 317.25606549096 281.45054446434017L317.25606549096 281.45054446434017Q303.5709138072728 281.45054446434017 295.25248827405113 291.1643187966829L295.25248827405113 291.1643187966829Q288.46357969371223 298.97290534561023 288.46357969371223 311.6383790607091L288.46357969371223 311.6383790607091L288.46357969371223 367.29132924103703Q288.46357969371223 379.7421339101172 295.25248827405113 387.76538950506324L295.25248827405113 387.76538950506324Q303.4635792842635 397.47916383740596 317.25606549096 397.47916383740596L317.25606549096 397.47916383740596Q330.7265481286286 397.47916383740596 339.23280907711654 387.76538950506324L339.23280907711654 387.76538950506324Q346.02171765745555 379.92996932538347 346.02171765745555 367.29132924103703L346.02171765745555 367.29132924103703L346.02171765745555 361.4415977370296L311.78200481748513 361.4415977370296L311.78200481748513 360.50242066069814L317.1487309679507 349.1786284832158L364.885760076342 349.1786284832158L364.885760076342 377.675944342188Z " fill="#533549" transform="matrix(0.83014587140197,0,0,0.83014587140197,0,18.19465613444973)"/><path d="M662.528872258959 377.675944342188L614.8991776735771 414.4648521036295Q593.3786058102102 414.4648521036295 579.9886240647985 400.7797004199423L579.9886240647985 400.7797004199423Q567.2426494574428 387.76538950506324 567.2426494574428 367.29132924103703L567.2426494574428 367.29132924103703L567.2426494574428 301.2537639595581L614.8991776735771 264.46485619811665Q636.3929159061918 264.46485619811665 649.7828976516033 278.15000788180384L649.7828976516033 278.15000788180384Q662.528872258959 291.1643187966829 662.528872258959 311.6383790607091L662.528872258959 311.6383790607091L644.604006916404 320.1178063784447L643.6648298400727 320.1178063784447L643.6648298400727 311.6383790607091Q643.6648298400727 298.97290534561023 636.8759212597337 291.1643187966829L636.8759212597337 291.1643187966829Q628.476994834255 281.45054446434017 614.8991776735771 281.45054446434017L614.8991776735771 281.45054446434017Q601.2140259898899 281.45054446434017 592.8956004566683 291.1643187966829L592.8956004566683 291.1643187966829Q586.1066918763294 298.97290534561023 586.1066918763294 311.6383790607091L586.1066918763294 311.6383790607091L586.1066918763294 367.29132924103703Q586.1066918763294 379.7421339101172 592.8956004566683 387.76538950506324L592.8956004566683 387.76538950506324Q601.1066914668805 397.47916383740596 614.8991776735771 397.47916383740596L614.8991776735771 397.47916383740596Q628.3696603112458 397.47916383740596 636.8759212597337 387.76538950506324L636.8759212597337 387.76538950506324Q643.6648298400727 379.92996932538347 643.6648298400727 367.29132924103703L643.6648298400727 367.29132924103703L643.6648298400727 361.4415977370296L609.4251170001022 361.4415977370296L609.4251170001022 360.50242066069814L614.7918431505678 349.1786284832158L662.528872258959 349.1786284832158L662.528872258959 377.675944342188ZM795.5431798982485 377.675944342188L747.9134853128664 414.4648521036295Q726.3929134494995 414.4648521036295 713.0029317040878 400.7797004199423L713.0029317040878 400.7797004199423Q700.2569570967321 387.76538950506324 700.2569570967321 367.29132924103703L700.2569570967321 367.29132924103703L700.2569570967321 301.2537639595581L747.9134853128664 264.46485619811665Q769.4072235454811 264.46485619811665 782.7972052908926 278.15000788180384L782.7972052908926 278.15000788180384Q795.5431798982485 291.1643187966829 795.5431798982485 311.6383790607091L795.5431798982485 311.6383790607091L777.6183145556934 320.1178063784447L776.679137479362 320.1178063784447L776.679137479362 311.6383790607091Q776.679137479362 298.97290534561023 769.890228899023 291.1643187966829L769.890228899023 291.1643187966829Q761.4913024735444 281.45054446434017 747.9134853128664 281.45054446434017L747.9134853128664 281.45054446434017Q734.2283336291792 281.45054446434017 725.9099080959576 291.1643187966829L725.9099080959576 291.1643187966829Q719.1209995156187 298.97290534561023 719.1209995156187 311.6383790607091L719.1209995156187 311.6383790607091L719.1209995156187 367.29132924103703Q719.1209995156187 379.7421339101172 725.9099080959576 387.76538950506324L725.9099080959576 387.76538950506324Q734.1209991061698 397.47916383740596 747.9134853128664 397.47916383740596L747.9134853128664 397.47916383740596Q761.3839679505351 397.47916383740596 769.890228899023 387.76538950506324L769.890228899023 387.76538950506324Q776.679137479362 379.92996932538347 776.679137479362 367.29132924103703L776.679137479362 367.29132924103703L794.604002821917 358.7850682925491L795.5431798982485 358.7850682925491L795.5431798982485 377.675944342188ZM924.7739456014596 377.675944342188L877.1442510160775 414.4648521036295Q855.167507429921 414.4648521036295 842.2336974072989 400.7797004199423L842.2336974072989 400.7797004199423Q829.5145564306956 387.28238415152134 829.5145564306956 367.29132924103703L829.5145564306956 367.29132924103703L847.4394217732506 358.7850682925491L848.378598849582 358.7850682925491L848.378598849582 367.29132924103703Q848.378598849582 379.7421339101172 855.167507429921 387.76538950506324L855.167507429921 387.76538950506324Q863.3785984401334 397.47916383740596 877.1442510160775 397.47916383740596L877.1442510160775 397.47916383740596Q890.6415672844985 397.47916383740596 899.1209946022341 387.76538950506324L899.1209946022341 387.76538950506324Q905.9099031825731 379.92996932538347 905.9099031825731 367.29132924103703L905.9099031825731 367.29132924103703Q905.9099031825731 355.1088608794802 900.3553416168411 348.6956231296739L900.3553416168411 348.6956231296739Q892.6272559601707 339.8405249814057 877.0369164930682 339.8405249814057L877.0369164930682 339.8405249814057Q859.595056504055 339.8405249814057 847.4394217732506 328.51673280392333L847.4394217732506 328.51673280392333Q837.9939837484312 319.7421355479121 837.9939837484312 303.69562435802004L837.9939837484312 303.69562435802004L837.9939837484312 294.65269079448547L877.1442510160775 264.46485619811665Q894.9617818356232 265.67236958197134 904.595055275709 273.5077897616511L904.595055275709 273.5077897616511Q916.294518283724 283.03372867872747 916.294518283724 301.52210026708144L916.294518283724 301.52210026708144L898.3696529411689 310.02836121556936L897.4304758648375 310.02836121556936L897.4304758648375 301.52210026708144Q897.4304758648375 289.92997178207577 891.2855744225544 284.56324563161024L891.2855744225544 284.56324563161024Q885.3553420262899 279.35752126565865 877.1442510160775 279.35752126565865L877.1442510160775 279.35752126565865Q867.9939829295338 279.35752126565865 862.4394213638019 285.1267518774091Q856.8580261673176 290.86914885840724 856.8580261673176 301.52210026708144L856.8580261673176 301.52210026708144Q856.8580261673176 311.82621447597535 861.0977398261855 316.5220998576327L861.0977398261855 316.5220998576327Q866.7596359149267 322.85483671518216 877.0369164930682 322.85483671518216L877.0369164930682 322.85483671518216Q899.6039999557759 322.85483671518216 912.0548046248562 333.61512264686553L912.0548046248562 333.61512264686553Q924.7739456014596 344.64374488607234 924.7739456014596 367.1034938257708L924.7739456014596 367.1034938257708L924.7739456014596 377.675944342188ZM1054.031544935423 377.675944342188L1006.3750167192886 414.4648521036295Q984.8812784866739 414.4648521036295 971.4912967412624 400.7797004199423L971.4912967412624 400.7797004199423Q958.7453221339067 387.76538950506324 958.7453221339067 367.29132924103703L958.7453221339067 367.29132924103703L958.7453221339067 301.2537639595581L1006.3750167192886 264.46485619811665Q1027.8955885826558 264.46485619811665 1041.2855703280675 278.15000788180384L1041.2855703280675 278.15000788180384Q1054.031544935423 291.1643187966829 1054.031544935423 311.6383790607091L1054.031544935423 311.6383790607091L1036.1066795928677 320.1178063784447L1035.1675025165364 320.1178063784447L1035.1675025165364 311.6383790607091Q1035.1675025165364 298.97290534561023 1028.3785939361974 291.1643187966829L1028.3785939361974 291.1643187966829Q1019.9796675107189 281.45054446434017 1006.3750167192886 281.45054446434017L1006.3750167192886 281.45054446434017Q992.7166986663538 281.45054446434017 984.3982731331321 291.1643187966829L984.3982731331321 291.1643187966829Q977.6093645527932 298.97290534561023 977.6093645527932 311.6383790607091L977.6093645527932 311.6383790607091L977.6093645527932 367.29132924103703Q977.6093645527932 379.7421339101172 984.3982731331321 387.76538950506324L984.3982731331321 387.76538950506324Q992.6093641433445 397.47916383740596 1006.3750167192886 397.47916383740596L1006.3750167192886 397.47916383740596Q1019.8723329877096 397.47916383740596 1028.3785939361974 387.76538950506324L1028.3785939361974 387.76538950506324Q1035.1675025165364 379.92996932538347 1035.1675025165364 367.29132924103703L1035.1675025165364 367.29132924103703L1035.1675025165364 361.4415977370296L1000.9009560458137 361.4415977370296L1000.9009560458137 360.50242066069814L1006.2945158270317 349.1786284832158L1054.031544935423 349.1786284832158L1054.031544935423 377.675944342188Z " fill="#f6b042" transform="matrix(0.83014587140197,0,0,0.83014587140197,0,18.19465613444973)"/></g></svg>